<svg width="42" height="44" viewBox="0 0 42 44" fill="none" xmlns="http://www.w3.org/2000/svg">
<path d="M17.7861 0.638703C17.132 0.70099 16.1588 0.903424 15.5515 1.10586C12.6863 2.06352 10.4206 4.32922 9.45515 7.18664C9.33057 7.57594 9.22157 7.9263 9.22157 7.97302C9.22157 8.01195 9.57972 8.06645 10.0157 8.09759C13.3325 8.33117 16.1588 9.89614 17.9262 12.4888C19.2498 14.4353 19.9428 17.0436 19.6702 19.1224C19.6313 19.4416 19.608 19.7219 19.6235 19.7375C19.6625 19.7764 21.2819 19.465 21.3364 19.4105C21.3598 19.3871 21.2196 19.0835 21.025 18.7253C19.5612 15.9925 19.4756 12.5745 20.7914 9.70928C21.4221 8.33896 22.7223 6.75063 23.9759 5.82411C24.2795 5.59832 24.9179 5.21681 25.4007 4.97545C25.8756 4.73409 26.2727 4.50829 26.2727 4.47715C26.2727 4.35258 24.8868 2.97447 24.3574 2.56961C23.2284 1.72094 21.7179 1.05136 20.371 0.794421C19.7014 0.669847 18.3622 0.591988 17.7861 0.638703Z" fill="black"/>
<path d="M28.3357 4.52392C28.0398 4.57842 27.6505 4.66407 27.4714 4.71078L27.1522 4.79643L27.5649 5.61395C29.0442 8.57259 29.052 11.8816 27.5727 14.8091C26.5839 16.7634 24.7853 18.5152 22.8855 19.3638C22.5663 19.5118 22.3016 19.6675 22.3016 19.7064C22.3016 19.7999 23.1191 20.7497 23.3138 20.8899C23.4383 20.9755 23.5006 20.9055 23.9055 20.267C24.4661 19.3794 25.813 17.9935 26.7006 17.4096C30.251 15.0349 34.7045 15.0427 38.1693 17.4329C38.8311 17.8845 38.7921 17.9079 39.0724 17.0203C39.4384 15.8835 39.5318 15.2607 39.5318 13.9838C39.5396 12.302 39.2515 11.0641 38.5352 9.6704C37.1493 6.95312 34.5099 5.00665 31.5668 4.52392C30.687 4.38377 29.0987 4.38377 28.3357 4.52392Z" fill="black"/>
<path d="M25.829 5.33349C24.8324 5.81621 24.046 6.38458 23.1896 7.24103C21.5857 8.85271 20.6903 10.7058 20.4256 12.9948C20.2232 14.7778 20.6047 16.8255 21.4611 18.4216C21.9127 19.2858 21.866 19.2625 22.5823 18.9355C25.5098 17.5807 27.6509 14.6844 28.0713 11.5155C28.1726 10.7447 28.1258 9.04736 27.9857 8.37777C27.7365 7.17096 26.8645 5.09991 26.5842 5.04541C26.5219 5.03762 26.1794 5.1622 25.829 5.33349Z" fill="black"/>
<path d="M9.04228 8.89177C8.94885 9.44456 8.98778 11.1497 9.10457 11.8504C9.62622 14.8558 11.6038 17.4952 14.3133 18.811C15.6369 19.4494 16.6647 19.722 18.1051 19.7998C18.9459 19.8387 19.0082 19.8387 19.0627 19.6986C19.0939 19.6207 19.1406 19.0913 19.1639 18.5385C19.273 15.7979 18.2296 13.2363 16.2209 11.2976C14.5158 9.65478 12.4214 8.75941 9.99216 8.63483L9.08899 8.58812L9.04228 8.89177Z" fill="black"/>
<path d="M7.35285 8.88453C4.19178 9.70205 1.81708 11.7731 0.656981 14.724C-0.682194 18.1653 0.0574667 22.0193 2.58788 24.7989L3.03947 25.2972L3.35869 24.76C4.14506 23.4442 5.49981 22.105 6.85456 21.2875C8.5986 20.2364 10.8799 19.7147 12.8653 19.9016C14.7027 20.0729 16.5558 20.7425 17.8249 21.6845C18.0429 21.8481 18.2531 21.996 18.3076 22.0271C18.3855 22.0738 18.767 21.1785 18.8993 20.5945L18.9538 20.3921L18.113 20.3376C15.4113 20.1585 13.2623 19.1931 11.3937 17.3322C10.5139 16.4524 10.0312 15.7906 9.50176 14.7084C8.72317 13.1278 8.48181 12.0534 8.48181 10.1069V8.68988H8.28716C8.17816 8.69767 7.75772 8.78331 7.35285 8.88453Z" fill="black"/>
<path d="M30.8583 16.2738C27.9698 16.7877 25.5016 18.5006 24.0612 21.0077L23.851 21.3658L24.1858 21.6305C26.5449 23.4991 30.0408 24.0831 32.9994 23.0865C34.6033 22.5493 36.0515 21.5838 37.2038 20.2914C37.6009 19.8398 38.4963 18.524 38.4963 18.3838C38.4963 18.2592 37.6554 17.6753 36.9391 17.3016C35.3741 16.4996 34.4087 16.2505 32.6569 16.2038C31.8549 16.1804 31.2554 16.2038 30.8583 16.2738Z" fill="black"/>
<path d="M38.4185 19.5357C37.5075 20.9684 36.036 22.2686 34.4087 23.0783C32.0963 24.2306 29.309 24.4175 26.7786 23.5844C25.9766 23.3275 24.9022 22.7903 24.2092 22.3075C23.9134 22.1051 23.6408 21.9572 23.6019 21.9961C23.5163 22.0817 23.0803 23.3353 23.0803 23.4988C23.0803 23.6233 23.1581 23.6389 23.6876 23.6389C24.8165 23.6389 26.2803 23.9581 27.4637 24.4642C29.9941 25.5465 32.0418 27.7499 32.9995 30.3971C33.4433 31.6273 33.6691 33.4647 33.5289 34.656C33.49 34.9985 33.4667 35.2866 33.4744 35.3022C33.4822 35.3178 33.8559 35.2477 34.2997 35.1621C38.8156 34.2433 42 30.327 42 25.7022C42 23.8491 41.3927 21.8793 40.365 20.3688C40.0146 19.8628 39.0569 18.7338 38.9791 18.7338C38.9479 18.7416 38.6988 19.0997 38.4185 19.5357Z" fill="black"/>
<path d="M10.8256 20.4546C8.61444 20.7427 6.57453 21.7938 5.00178 23.4678C4.50348 23.9972 3.85725 24.8848 3.59253 25.3987L3.46796 25.6478L4.02854 26.0293C5.22757 26.8546 6.35653 27.3374 7.67234 27.6177C8.72344 27.8357 10.3507 27.8512 11.3473 27.6566C14.0957 27.1194 16.5638 25.3831 17.8641 23.0629L18.1288 22.6035L17.8485 22.3622C17.4125 21.9884 16.268 21.3266 15.575 21.0619C14.0179 20.4624 12.3984 20.2522 10.8256 20.4546Z" fill="black"/>
<path d="M18.3621 23.2646C18.292 23.4048 18.0818 23.7396 17.8871 24.0043C16.4467 26.052 14.4691 27.3989 11.9854 28.0452C10.9187 28.3255 9.13577 28.3878 7.96789 28.1931C6.45743 27.944 5.07932 27.3912 3.85694 26.5581L3.22628 26.1298L3.10949 26.4101C2.12068 28.7848 2.25304 31.9303 3.45207 34.2661C4.83796 36.9756 7.22044 38.7819 10.2336 39.4204C11.1913 39.615 12.9742 39.5995 14.002 39.3814C14.4224 39.2958 14.7806 39.2024 14.8039 39.179C14.8273 39.1557 14.6638 38.7897 14.4458 38.3693C13.6049 36.7187 13.3012 35.3328 13.3713 33.3396C13.4024 32.3352 13.4492 31.9303 13.6049 31.3308C14.072 29.5479 15.0063 27.8972 16.2677 26.6359C17.1085 25.7795 17.8716 25.2345 18.9149 24.7128C19.3431 24.5026 19.6935 24.3002 19.6935 24.2612C19.6935 24.1367 18.7046 23.0155 18.5956 23.0155C18.5334 23.0155 18.4321 23.1323 18.3621 23.2646Z" fill="black"/>
<path d="M21.7959 24.3002C21.5001 24.3547 21.103 24.4403 20.9239 24.487L20.5969 24.5805L20.8538 25.0243C22.2164 27.3445 22.52 30.5367 21.6324 33.1995C21.2042 34.4841 20.4178 35.8155 19.4602 36.8588C18.6037 37.7854 17.2022 38.7975 16.1823 39.218C15.9487 39.3192 15.7619 39.436 15.7619 39.4827C15.7619 39.5372 16.0421 39.8798 16.3925 40.2535C17.8796 41.8418 19.756 42.854 21.9127 43.2277C22.8548 43.3912 24.5989 43.3367 25.5721 43.1109C28.7565 42.379 31.4115 40.0199 32.4782 36.9523C32.6105 36.5863 32.7351 36.197 32.7663 36.0802L32.813 35.8622H32.2135C28.6475 35.8622 25.1205 33.6744 23.4465 30.4355C22.6057 28.8082 22.2631 27.2588 22.3254 25.3668C22.3409 24.7206 22.3565 24.1834 22.3487 24.1912C22.3487 24.1912 22.0996 24.2457 21.7959 24.3002Z" fill="black"/>
<path d="M22.8933 24.4716C22.7843 25.1412 22.8466 26.8386 23.0023 27.6171C23.7887 31.4634 26.7551 34.422 30.5702 35.1695C31.4578 35.3408 32.7736 35.3875 32.9137 35.2473C33.0695 35.0916 33.0383 32.6936 32.867 31.9227C32.4544 29.9763 31.5668 28.3179 30.2354 26.9865C28.468 25.2191 26.0544 24.1836 23.6952 24.1836H22.9478L22.8933 24.4716Z" fill="black"/>
<path d="M19.2654 25.1176C18.331 25.577 17.6147 26.0753 16.8595 26.7916C14.9052 28.6524 13.8775 31.0116 13.8697 33.6432C13.8619 35.3094 14.1734 36.6641 14.8663 38.0422C15.4113 39.1089 15.3023 39.0622 16.1588 38.6495C18.0819 37.7074 19.6001 36.2203 20.5656 34.3361C21.2819 32.9425 21.6011 31.5955 21.6011 29.9838C21.6011 28.8782 21.461 27.9751 21.134 26.9629C20.8692 26.1454 20.2074 24.8607 20.0439 24.8218C19.9817 24.814 19.6313 24.9464 19.2654 25.1176Z" fill="black"/>
</svg>
